<svg width="24" height="24" xmlns="http://www.w3.org/2000/svg"><path d="M21.547 15.938h-1.371v-3.282h-7.313V10.5h6.043c.224 0 .407-.169.407-.375V3.937c0-.206-.183-.374-.407-.374H5.094c-.224 0-.407.168-.407.374v6.188c0 .206.183.375.407.375h6.043v2.156H3.824v3.281h-1.37c-.113 0-.204.085-.204.188v4.125c0 .103.091.188.203.188h4.469c.112 0 .203-.085.203-.188v-4.125c0-.103-.091-.188-.203-.188H5.55V14.25h5.586v1.688H9.766c-.112 0-.204.084-.204.187v4.125c0 .103.092.188.204.188h4.468c.112 0 .204-.085.204-.188v-4.125c0-.103-.092-.188-.204-.188h-1.37V14.25h5.585v1.688h-1.37c-.113 0-.204.084-.204.187v4.125c0 .103.091.188.203.188h4.469c.112 0 .203-.085.203-.188v-4.125c0-.103-.091-.188-.203-.188zm-16.11 2.936c0 .035-.031.064-.07.064H3.82c-.04 0-.071-.029-.071-.064v-1.373c0-.035.032-.064.071-.064h1.545c.04 0 .072.029.072.064v1.373zm7.313 0c0 .035-.032.064-.071.064h-1.545c-.04 0-.072-.029-.072-.064v-1.373c0-.035.032-.064.072-.064h1.545c.04 0 .071.029.071.064v1.373zM6.187 9V5.062h11.438V9H6.187zm13.875 9.874c0 .035-.031.064-.07.064h-1.546c-.04 0-.071-.029-.071-.064v-1.373c0-.035.032-.064.071-.064h1.545c.04 0 .072.029.072.064v1.373zm-12-11.749c0 .518.462.938 1.032.938.57 0 1.031-.42 1.031-.938s-.462-.938-1.031-.938c-.57 0-1.031.42-1.031.938z"/></svg>