<svg width="24" height="24" xmlns="http://www.w3.org/2000/svg"><path d="M3.423 2.667c.236-.282.85-.23 1.264-.23h9.375c.433 0 1.039.015 1.313.308.25.268.187.797.188 1.192v6h3.562c.384 0 .921-.057 1.224.14l.092.076c.257.27.184.883.184 1.284v8.626c0 .394.065.966-.184 1.234-.274.294-.883.265-1.316.265H4.687c-.397 0-.996-.039-1.264-.291-.291-.274-.236-.778-.236-1.209V3.794c.003-.394.026-.877.236-1.127zm10.452 1.458h-9v15.75h9V4.125zm5.063 7.5h-3.375v8.25h3.374v-8.25zM9.844 5.062c.103 0 .187.085.187.188v2.531h2.531c.104 0 .188.085.188.188v1.125a.188.188 0 01-.188.187h-2.53v2.531a.188.188 0 01-.188.188H8.719a.188.188 0 01-.188-.188v-2.53H6a.188.188 0 01-.188-.188V7.969c0-.103.085-.188.188-.188h2.531V5.25c0-.103.085-.188.188-.188z"/></svg>