<svg width="24" height="24" xmlns="http://www.w3.org/2000/svg"><path d="M21.75 4.125h-5.363c-1.15 0-2.275.33-3.243.954L12 5.813l-1.144-.734a5.981 5.981 0 00-3.244-.954H2.25a.75.75 0 00-.75.75v13.313c0 .414.335.75.75.75h5.362c1.151 0 2.276.33 3.244.953l1.04.67c.031.02.066.031.102.031.035 0 .07-.01.1-.03l1.041-.67a6.009 6.009 0 013.248-.954h5.363a.75.75 0 00.75-.75V4.874a.75.75 0 00-.75-.75zM7.613 17.25H3.187V5.812h4.425c.83 0 1.636.237 2.333.685l1.143.733.162.106v10.828a7.67 7.67 0 00-3.638-.914zm13.2 0h-4.425a7.67 7.67 0 00-3.638.914V7.336l.162-.106 1.143-.733a4.302 4.302 0 012.332-.684h4.425V17.25zM9.303 8.812H4.947c-.092 0-.167.08-.167.176v1.055c0 .096.075.176.167.176H9.3c.091 0 .166-.08.166-.176V8.988a.169.169 0 00-.164-.175zm5.228.176v1.055c0 .096.075.176.167.176h4.352c.091 0 .166-.08.166-.176V8.988c0-.096-.075-.175-.166-.175h-4.352c-.092 0-.167.08-.167.175zm-5.229 3.106H4.948c-.092 0-.167.08-.167.176v1.054c0 .096.075.176.167.176H9.3c.091 0 .166-.08.166-.176V12.27a.169.169 0 00-.164-.176zm9.75 0h-4.354c-.092 0-.167.08-.167.176v1.054c0 .096.075.176.167.176h4.352c.091 0 .166-.08.166-.176V12.27a.169.169 0 00-.164-.176z"/></svg>