<svg width="24" height="24" xmlns="http://www.w3.org/2000/svg"><path d="M19.753 18.551l.016-.02a10.014 10.014 0 002.356-6.468c0-2.464-.885-4.72-2.354-6.47-.004-.006-.011-.01-.016-.017-.024-.03-.047-.056-.072-.083-.008-.012-.017-.02-.026-.032l-.093-.105-.002-.003-.103-.114-.002-.002c-.072-.077-.144-.153-.218-.227l-.002-.002-.108-.108-.007-.007-.101-.097a1.725 1.725 0 00-.103-.097c-.007-.006-.016-.013-.023-.022A10.014 10.014 0 0012.063 2c-2.64 0-5.04 1.015-6.835 2.677-.007.007-.016.014-.023.023-.022.02-.045.042-.067.065a.527.527 0 01-.036.034L5 4.895l-.007.007-.108.108-.002.002c-.074.074-.146.15-.218.227l-.002.002c-.036.038-.07.076-.103.115l-.003.002c-.031.034-.063.07-.092.105l-.027.032c-.024.027-.047.056-.072.083-.004.007-.01.011-.015.018A10.024 10.024 0 002 12.062c0 2.464.885 4.72 2.354 6.47l.016.02.07.083.026.031.092.106c0 .002.003.002.003.004.033.038.067.076.103.112l.002.003.216.226.002.003c.036.036.07.072.106.105l.006.007a10.044 10.044 0 007.066 2.893 10.024 10.024 0 007.06-2.893l.007-.007c.036-.036.072-.07.105-.105l.003-.003c.074-.074.146-.15.215-.226l.002-.003.104-.112.002-.004c.031-.034.063-.07.092-.106l.027-.031c.027-.03.052-.057.074-.084zm.092-3.202a8.434 8.434 0 01-1.217 2.026 9.974 9.974 0 00-1.83-1.256c.26-1.053.422-2.21.464-3.428h3.223a8.397 8.397 0 01-.64 2.658zm.64-3.915h-3.223a16.792 16.792 0 00-.465-3.428 9.974 9.974 0 001.83-1.256 8.397 8.397 0 011.858 4.683zM15.35 4.28a8.396 8.396 0 012.416 1.554 8.866 8.866 0 01-1.334.939c-.352-1.01-.804-1.889-1.33-2.592.084.031.167.065.248.099zm-2.035 15.736a2.542 2.542 0 01-.623.368v-4.166a8.74 8.74 0 012.6.588 9.735 9.735 0 01-.652 1.523c-.391.728-.85 1.31-1.325 1.687zm1.325-14.22c.247.463.465.972.651 1.523a8.74 8.74 0 01-2.599.588V3.743c.207.083.416.204.623.368.476.375.934.957 1.325 1.685zm-1.948 9.162V12.69h3.313a15.6 15.6 0 01-.366 2.87l-.006.028a9.995 9.995 0 00-2.94-.631zm0-3.524V9.167a9.995 9.995 0 002.94-.63l.007.026c.207.914.33 1.876.366 2.87h-3.313zm-1.257 1.257v2.267a9.995 9.995 0 00-2.94.63l-.007-.026a15.575 15.575 0 01-.366-2.87h3.313zM8.12 11.434a15.6 15.6 0 01.366-2.87l.006-.028a9.98 9.98 0 002.94.631v2.267H8.122zm3.313 4.784v4.164a2.513 2.513 0 01-.623-.368c-.476-.375-.936-.96-1.327-1.687a10.147 10.147 0 01-.651-1.523 8.766 8.766 0 012.6-.586zm0-8.31a8.74 8.74 0 01-2.6-.59 9.735 9.735 0 01.652-1.522c.391-.728.85-1.312 1.328-1.687.206-.162.413-.285.622-.368v4.166h-.002zM8.776 4.28c.084-.034.164-.068.248-.099-.526.703-.978 1.581-1.33 2.592a8.707 8.707 0 01-1.334-.939A8.396 8.396 0 018.776 4.28zM4.28 8.776c.31-.732.719-1.41 1.217-2.026.56.483 1.173.906 1.83 1.256a16.792 16.792 0 00-.464 3.428H3.64c.067-.92.283-1.81.64-2.658zm-.64 3.915h3.223c.042 1.218.204 2.375.465 3.428a9.974 9.974 0 00-1.83 1.256 8.397 8.397 0 01-1.858-4.683zm5.136 7.154a8.396 8.396 0 01-2.416-1.554 8.866 8.866 0 011.334-.939c.352 1.01.804 1.889 1.33 2.592a8.085 8.085 0 01-.248-.099zm6.573 0c-.084.034-.164.068-.248.099.526-.703.978-1.581 1.33-2.592.472.27.919.584 1.334.939a8.396 8.396 0 01-2.416 1.554z"/></svg>
